<?xml version="1.0" encoding="UTF-8" standalone="no"?>
<!DOCTYPE svg PUBLIC "-//W3C//DTD SVG 1.1//EN"
 "http://www.w3.org/Graphics/SVG/1.1/DTD/svg11.dtd">
<!-- Generated by graphviz version 9.0.0 (20230911.1827)
 -->
<!-- Title: example Pages: 1 -->
<svg width="339pt" height="311pt"
 viewBox="0.00 0.00 338.62 311.25" xmlns="http://www.w3.org/2000/svg" xmlns:xlink="http://www.w3.org/1999/xlink">
<g id="graph0" class="graph" transform="scale(1 1) rotate(0) translate(4 307.25)">
<title>example</title>
<polygon fill="white" stroke="none" points="-4,4 -4,-307.25 334.62,-307.25 334.62,4 -4,4"/>
<!-- boost Graph -->
<g id="node1" class="node">
<title>boost Graph</title>
<g id="a_node1"><a xlink:href="https://www.boost.org/libs/graph/doc/Graph.html" target="_top" xlink:title="\N">
<polygon fill="none" stroke="black" points="136.12,-266.75 136.12,-302.75 205.38,-302.75 205.38,-266.75 136.12,-266.75"/>
<text text-anchor="middle" x="170.75" y="-281.25" font-family="Helvetica,sans-Serif" font-size="10.00">boost Graph</text>
</a>
</g>
</g>
<!-- HalfedgeGraph -->
<g id="node2" class="node">
<title>HalfedgeGraph</title>
<g id="a_node2"><a xlink:href="class_halfedge_graph.html" target="_top" xlink:title="\N">
<polygon fill="none" stroke="black" points="130.88,-178 130.88,-214 210.62,-214 210.62,-178 130.88,-178"/>
<text text-anchor="middle" x="170.75" y="-192.5" font-family="Helvetica,sans-Serif" font-size="10.00">HalfedgeGraph</text>
</a>
</g>
</g>
<!-- HalfedgeGraph&#45;&gt;boost Graph -->
<g id="edge2" class="edge">
<title>HalfedgeGraph&#45;&gt;boost Graph</title>
<path fill="none" stroke="black" d="M170.75,-214.14C170.75,-225.83 170.75,-241.58 170.75,-255.15"/>
<polygon fill="black" stroke="black" points="170.75,-265.13 166.25,-255.13 170.75,-261.35 170.75,-255.13 170.75,-255.13 170.75,-255.13 170.75,-261.35 175.25,-255.13 170.75,-265.13"/>
<text text-anchor="middle" x="189.12" y="-234.95" font-family="Times New Roman,serif" font-size="14.00">refines</text>
</g>
<!-- HalfedgeListGraph -->
<g id="node3" class="node">
<title>HalfedgeListGraph</title>
<g id="a_node3"><a xlink:href="class_halfedge_list_graph.html" target="_top" xlink:title="\N">
<polygon fill="none" stroke="black" points="0,-89.25 0,-125.25 95.5,-125.25 95.5,-89.25 0,-89.25"/>
<text text-anchor="middle" x="47.75" y="-103.75" font-family="Helvetica,sans-Serif" font-size="10.00">HalfedgeListGraph</text>
</a>
</g>
</g>
<!-- HalfedgeListGraph&#45;&gt;HalfedgeGraph -->
<g id="edge7" class="edge">
<title>HalfedgeListGraph&#45;&gt;HalfedgeGraph</title>
<path fill="none" stroke="black" d="M72.35,-125.6C90.95,-138.72 116.7,-156.88 137.2,-171.33"/>
<polygon fill="black" stroke="black" points="145.2,-176.98 134.44,-174.89 142.11,-174.8 137.03,-171.22 137.03,-171.22 137.03,-171.22 142.11,-174.8 139.62,-167.54 145.2,-176.98"/>
<text text-anchor="middle" x="139.12" y="-146.2" font-family="Times New Roman,serif" font-size="14.00">refines</text>
</g>
<!-- MutableHalfedgeGraph -->
<g id="node4" class="node">
<title>MutableHalfedgeGraph</title>
<g id="a_node4"><a xlink:href="class_mutable_halfedge_graph.html" target="_top" xlink:title="\N">
<polygon fill="none" stroke="black" points="113.62,-89.25 113.62,-125.25 227.88,-125.25 227.88,-89.25 113.62,-89.25"/>
<text text-anchor="middle" x="170.75" y="-103.75" font-family="Helvetica,sans-Serif" font-size="10.00">MutableHalfedgeGraph</text>
</a>
</g>
</g>
<!-- MutableHalfedgeGraph&#45;&gt;HalfedgeGraph -->
<g id="edge1" class="edge">
<title>MutableHalfedgeGraph&#45;&gt;HalfedgeGraph</title>
<path fill="none" stroke="black" d="M170.75,-125.39C170.75,-137.08 170.75,-152.83 170.75,-166.4"/>
<polygon fill="black" stroke="black" points="170.75,-176.38 166.25,-166.38 170.75,-172.6 170.75,-166.38 170.75,-166.38 170.75,-166.38 170.75,-172.6 175.25,-166.38 170.75,-176.38"/>
<text text-anchor="middle" x="189.12" y="-146.2" font-family="Times New Roman,serif" font-size="14.00">refines</text>
</g>
<!-- FaceGraph -->
<g id="node5" class="node">
<title>FaceGraph</title>
<g id="a_node5"><a xlink:href="class_face_graph.html" target="_top" xlink:title="\N">
<polygon fill="none" stroke="black" points="245.75,-89.25 245.75,-125.25 309.75,-125.25 309.75,-89.25 245.75,-89.25"/>
<text text-anchor="middle" x="277.75" y="-103.75" font-family="Helvetica,sans-Serif" font-size="10.00">FaceGraph</text>
</a>
</g>
</g>
<!-- FaceGraph&#45;&gt;HalfedgeGraph -->
<g id="edge4" class="edge">
<title>FaceGraph&#45;&gt;HalfedgeGraph</title>
<path fill="none" stroke="black" d="M256.35,-125.6C240.32,-138.6 218.17,-156.55 200.42,-170.94"/>
<polygon fill="black" stroke="black" points="193.06,-176.92 197.99,-167.12 195.99,-174.53 200.82,-170.62 200.82,-170.62 200.82,-170.62 195.99,-174.53 203.66,-174.11 193.06,-176.92"/>
<text text-anchor="middle" x="253.12" y="-146.2" font-family="Times New Roman,serif" font-size="14.00">refines</text>
</g>
<!-- FaceListGraph -->
<g id="node6" class="node">
<title>FaceListGraph</title>
<g id="a_node6"><a xlink:href="class_face_list_graph.html" target="_top" xlink:title="\N">
<polygon fill="none" stroke="black" points="250.88,-0.5 250.88,-36.5 330.62,-36.5 330.62,-0.5 250.88,-0.5"/>
<text text-anchor="middle" x="290.75" y="-15" font-family="Helvetica,sans-Serif" font-size="10.00">FaceListGraph</text>
</a>
</g>
</g>
<!-- FaceListGraph&#45;&gt;FaceGraph -->
<g id="edge3" class="edge">
<title>FaceListGraph&#45;&gt;FaceGraph</title>
<path fill="none" stroke="black" d="M288.18,-36.64C286.41,-48.44 284.02,-64.4 281.97,-78.06"/>
<polygon fill="black" stroke="black" points="280.54,-87.64 277.57,-77.09 281.1,-83.9 282.02,-77.76 282.02,-77.76 282.02,-77.76 281.1,-83.9 286.47,-78.42 280.54,-87.64"/>
<text text-anchor="middle" x="304.12" y="-57.45" font-family="Times New Roman,serif" font-size="14.00">refines</text>
</g>
<!-- MutableFaceGraph -->
<g id="node7" class="node">
<title>MutableFaceGraph</title>
<g id="a_node7"><a xlink:href="class_mutable_face_graph.html" target="_top" xlink:title="\N">
<polygon fill="none" stroke="black" points="128.5,-0.5 128.5,-36.5 227,-36.5 227,-0.5 128.5,-0.5"/>
<text text-anchor="middle" x="177.75" y="-15" font-family="Helvetica,sans-Serif" font-size="10.00">MutableFaceGraph</text>
</a>
</g>
</g>
<!-- MutableFaceGraph&#45;&gt;MutableHalfedgeGraph -->
<g id="edge5" class="edge">
<title>MutableFaceGraph&#45;&gt;MutableHalfedgeGraph</title>
<path fill="none" stroke="black" d="M174.47,-36.77C173.5,-42.55 172.55,-49.03 172,-55 171.31,-62.44 170.94,-70.52 170.75,-78.01"/>
<polygon fill="black" stroke="black" points="170.6,-87.91 166.25,-77.85 170.66,-84.13 170.75,-77.92 170.75,-77.92 170.75,-77.92 170.66,-84.13 175.25,-77.98 170.6,-87.91"/>
<text text-anchor="middle" x="191.12" y="-57.45" font-family="Times New Roman,serif" font-size="14.00">refines</text>
</g>
<!-- MutableFaceGraph&#45;&gt;FaceGraph -->
<g id="edge6" class="edge">
<title>MutableFaceGraph&#45;&gt;FaceGraph</title>
<path fill="none" stroke="black" d="M197.51,-36.64C212.34,-49.51 232.86,-67.31 249.43,-81.69"/>
<polygon fill="black" stroke="black" points="256.77,-88.05 246.27,-84.9 253.92,-85.57 249.22,-81.5 249.22,-81.5 249.22,-81.5 253.92,-85.57 252.17,-78.1 256.77,-88.05"/>
<text text-anchor="middle" x="255.12" y="-57.45" font-family="Times New Roman,serif" font-size="14.00">refines</text>
</g>
</g>
</svg>
